<?xml version="1.0" standalone="no"?>
<!DOCTYPE svg PUBLIC "-//W3C//DTD SVG 20010904//EN"
 "http://www.w3.org/TR/2001/REC-SVG-20010904/DTD/svg10.dtd">
<svg version="1.0" xmlns="http://www.w3.org/2000/svg"
 width="269.000000pt" height="286.000000pt" viewBox="0 0 269.000000 286.000000"
 preserveAspectRatio="xMidYMid meet">

<g transform="translate(0.000000,286.000000) scale(0.100000,-0.100000)"
fill="#000000" stroke="none">
<path d="M1190 2514 c-69 -36 -71 -37 -212 -18 -46 6 -46 6 -116 -59 -53 -50
-79 -67 -108 -72 -22 -3 -64 -11 -94 -18 l-55 -12 -43 -81 c-43 -80 -46 -83
-124 -125 -43 -23 -83 -51 -89 -60 -7 -14 -28 -130 -29 -161 0 -5 -30 -40 -66
-80 l-66 -72 6 -56 c4 -30 9 -71 12 -91 5 -28 -2 -52 -30 -110 -20 -41 -36
-88 -36 -106 0 -18 17 -64 37 -102 36 -71 36 -71 25 -135 -20 -109 -18 -120
39 -179 71 -72 76 -83 89 -162 14 -89 27 -108 98 -144 74 -38 96 -59 132 -132
32 -62 75 -99 117 -99 12 0 45 -5 74 -11 43 -9 60 -20 103 -65 58 -62 102 -80
156 -64 68 19 123 12 193 -25 36 -19 75 -35 87 -35 12 0 52 16 91 36 l69 36
105 -7 104 -7 65 61 c63 61 66 63 147 77 93 16 111 28 146 99 34 68 68 102
135 136 32 16 65 40 73 53 13 19 34 115 35 158 0 5 30 40 66 80 l66 72 -8 71
c-13 119 -11 139 25 196 43 70 44 116 4 185 -43 72 -46 85 -32 167 7 40 9 85
5 101 -4 15 -30 49 -58 74 -56 52 -66 72 -78 152 -14 93 -23 106 -97 144 -81
40 -102 62 -138 139 -32 69 -52 83 -130 93 -85 10 -100 17 -173 85 -72 68 -51
63 -198 43 -46 -6 -59 -3 -127 30 -42 20 -88 36 -104 35 -15 -1 -57 -16 -93
-35z m245 -134 c230 -33 484 -177 622 -353 152 -193 223 -392 223 -627 0 -281
-103 -526 -301 -717 -209 -201 -514 -307 -790 -274 -119 15 -295 68 -362 111
-26 16 -50 30 -53 30 -3 0 -31 18 -62 40 -163 117 -292 292 -362 492 -38 110
-50 187 -50 321 0 330 167 639 446 822 114 76 273 136 414 158 51 8 207 6 275
-3z"/>
<path d="M1135 2307 c-281 -51 -531 -232 -660 -479 -38 -72 -75 -170 -75 -197
1 -9 11 14 25 51 95 267 279 462 530 561 126 49 191 61 340 61 148 -1 221 -15
350 -69 257 -106 456 -338 532 -619 9 -34 19 -124 23 -201 l7 -140 1 115 c4
256 -85 477 -265 656 -173 174 -377 262 -623 270 -66 2 -145 -2 -185 -9z"/>
<path d="M727 1582 c-97 -97 -177 -182 -177 -187 0 -14 353 -365 366 -365 18
0 84 75 84 95 0 12 -52 71 -127 147 l-127 127 127 129 c70 70 127 135 127 144
0 15 -75 88 -89 88 -4 0 -86 -80 -184 -178z"/>
<path d="M1620 1724 c-23 -21 -40 -45 -40 -58 0 -13 44 -65 125 -146 l126
-126 -125 -124 c-81 -81 -126 -133 -126 -146 0 -32 75 -97 98 -85 23 13 352
345 352 356 0 11 -329 343 -352 356 -14 7 -27 1 -58 -27z"/>
<path d="M1340 1731 c-6 -12 -21 -51 -34 -88 -26 -74 -76 -206 -191 -507 -14
-38 -24 -75 -21 -82 7 -18 131 -19 143 -1 4 6 27 64 50 127 53 148 89 246 147
397 65 173 66 167 -16 171 -59 3 -68 0 -78 -17z"/>
<path d="M391 1594 c0 -11 3 -14 6 -6 3 7 2 16 -1 19 -3 4 -6 -2 -5 -13z"/>
<path d="M376 1524 c-18 -133 2 -323 46 -443 57 -154 172 -308 312 -421 106
-83 335 -180 400 -167 17 3 16 5 -6 6 -31 1 -198 56 -243 79 -130 66 -269 190
-351 313 -113 169 -160 344 -151 557 3 67 4 122 3 122 -2 0 -6 -21 -10 -46z"/>
<path d="M2183 1209 c-41 -215 -192 -436 -387 -568 -121 -82 -251 -129 -415
-151 -75 -10 -122 -19 -106 -19 17 -1 69 4 115 9 330 41 593 228 733 524 44
91 82 219 75 252 -1 9 -8 -12 -15 -47z"/>
<path d="M1178 483 c12 -2 32 -2 45 0 12 2 2 4 -23 4 -25 0 -35 -2 -22 -4z"/>
</g>
</svg>
